<svg xmlns="http://www.w3.org/2000/svg" viewBox="0 0 20 20">
    <path d="M1.99 5.59c0 1.493.498 2.57 1.48 3.204.807.52 1.74.598 2.227.598.118 0 .213-.006.28-.01 0 0-.155 1.004.59 1.996H6.53c-1.29 0-5.493.27-5.493 3.727 0 3.516 3.86 3.695 4.635 3.695.06 0 .097-.002.097-.002.007 0 .062.002.157.002.497 0 1.782-.062 2.975-.643 1.548-.75 2.333-2.06 2.333-3.885 0-1.764-1.196-2.814-2.07-3.582-.532-.47-.993-.873-.993-1.266 0-.4.337-.7.762-1.082.69-.615 1.34-1.492 1.34-3.15 0-1.457-.19-2.436-1.355-3.057.12-.062.55-.107.762-.137.63-.086 1.554-.184 1.554-.7V1.2h-4.6c-.046.002-4.65.172-4.65 4.39zm7.422 9.01c.088 1.406-1.115 2.443-2.922 2.574-1.834.135-3.344-.69-3.432-2.096-.043-.676.254-1.336.835-1.863.59-.533 1.398-.863 2.278-.928.106-.007.21-.013.31-.013 1.7 0 2.85 1 2.934 2.325zm-1.2-9.976c.45 1.588-.23 3.246-1.317 3.553-.125.034-.253.05-.384.05-.993 0-1.98-1.005-2.344-2.392-.204-.776-.187-1.458.047-2.112.23-.645.643-1.078 1.163-1.225.125-.034.254-.052.385-.052 1.2 0 1.973.498 2.45 2.178zM16 8V5h-2v3h-3v2h3v3h2v-3h3V8h-3z"/>
</svg>
