<svg xmlns="http://www.w3.org/2000/svg" viewBox="0 0 512 426.66">
    <path d="M478.905 196.556c0-4.5-1.028-8.933-3.268-13.09l-.053-.053-.026-.06c-3.004-6.198-7.72-10.862-13.4-14.05-5.677-3.19-12.317-4.836-18.983-4.836-6.02 0-12.016 1.363-17.338 4.038 16.916 14.677 31.765 32.37 41.37 53.128 3.08-2.668 5.717-5.97 7.68-9.604 2.57-4.785 4.018-10.186 4.018-15.475zm-33.635 73.442c0-18.484-6.653-36.98-17.43-51.94-21.476-29.868-54.82-49.38-89.497-60.243l-.25-.118c-6.64-2.05-13.373-3.808-20.158-5.402-20.263-4.61-41.026-6.884-61.796-6.884-27.874 0-55.738 4.1-82.43 12.347-34.67 11.034-68.108 30.375-89.557 60.36v.054C73.29 233.138 66.92 251.74 66.92 270.226c0 6.824.857 13.648 2.655 20.315h.02c3.906 14.834 11.54 28.153 21.416 39.76 9.875 11.542 21.99 21.45 34.736 29.525 2.82 1.766 5.652 3.412 8.55 5.06 37.01 20.645 79.63 29.695 121.947 29.695 7.146 0 14.354-.224 21.455-.737 42.62-3.518 85.41-16.1 119.995-41.804h.013c11.015-8.145 21.212-18.05 29.288-29.25 8.09-11.21 14.018-23.715 16.653-37.31v-.067h.012c1.093-5.126 1.607-10.238 1.607-15.416zM86.078 168.736c-5.514-2.562-11.212-4.387-16.845-4.387-.94 0-1.896.057-2.846.17h-.27c-8.09.23-16.25 3.754-22.377 9.445-6.133 5.633-10.19 13.2-10.494 21.62v.053l-.013.06c-.06.684-.08 1.362-.08 1.988 0 5.178 1.59 10.184 4.276 14.735 1.994 3.414 4.602 6.483 7.554 9.158 9.453-20.703 24.222-38.226 41.093-52.844zM390.448 58.2c0 .566 0 1.14.066 1.706v.112c.25 7.167 3.637 13.827 8.788 18.774 5.164 4.895 12.016 7.964 18.972 7.964h.185l1.5.06c7.01 0 13.98-3.017 19.21-7.91 5.242-4.948 8.707-11.66 8.983-18.888v-.053c.053-.572.08-1.08.08-1.653 0-7.45-3.48-14.505-8.933-19.795-5.414-5.237-12.713-8.478-19.92-8.478-2.318 0-4.61.34-6.877 1.026l-.053.053h-.08c-5.928 1.534-11.487 5.177-15.48 10.07-4.017 4.835-6.44 10.81-6.44 17.01zm121.447 134.937v.06c.08 1.14.105 2.22.105 3.36 0 12.396-3.992 24.405-10.646 34.523-6.218 9.5-14.782 17.47-24.637 22.818.633 4.94 1 9.947 1 14.9-.025 26.798-9.247 53.135-25.334 74.24h-.026c-29.735 39.538-75.373 62.857-121.46 74.583h-.012l-.04.055c-24.57 5.98-49.906 8.985-75.247 8.985-37.766 0-75.512-6.772-110.722-20.923h-.046c-36.508-15.085-71.296-38.97-92.633-74.016-11.475-18.72-17.772-40.683-17.772-62.685 0-5.006.33-10.013 1-14.913-9.617-5.454-17.937-13.082-24.116-22.238C4.71 221.976.532 210.487 0 198.314v-.224c.013-17.068 7.424-33.228 18.945-45.11 11.52-11.95 27.252-19.743 44.136-19.743h.7c1.76-.12 3.558-.172 5.343-.172 8.478 0 16.976 1.364 25.045 4.493h.086c6.89 2.904 13.734 6.43 19.834 11.265 1.977-1.02 4.13-2.22 6.555-3.13 36.982-21.902 79.958-30.32 121.848-32.766.363-20.764 2.91-42.495 13.03-61.5 8.426-15.81 23.05-28.102 40.48-32.37h.158c6.627-1.305 13.32-1.877 19.96-1.877 17.706 0 35.19 4.156 51.565 10.698 7.233-10.922 17.575-19.46 29.71-24.235l.118-.06.106-.053C404.73 1.31 412.266 0 419.83 0c7.956 0 15.98 1.482 23.503 4.835v-.053l.026.053.13.06c10.79 4.157 19.92 11.83 26.39 21.33 6.47 9.618 10.29 21.105 10.29 32.884 0 2.16-.133 4.32-.384 6.54l-.013.06-.026.11c-1.265 15.25-8.985 28.617-19.92 38.116-11 9.617-25.243 15.42-39.867 15.42-2.345 0-4.716-.17-7.06-.46-14.507-1.134-28.024-8.13-37.958-18.604-9.974-10.408-16.39-24.347-16.39-39.36 0-.685.066-1.48.093-2.166-13.623-6.087-28.062-11.094-42.437-11.094-2.068 0-4.15.12-6.23.343h-.027c-10.75 1.027-20.75 7.793-25.597 17.522v.053c-7.365 14.342-8.814 31.067-9.038 47.733 41.224 2.675 82.71 12.575 119.087 33.45h.054l.527.343c.686.396 1.95 1.08 3.123 1.707 2.49-2.05 5.14-4.098 8.155-5.916 11.028-7.338 24.085-10.98 37.154-10.98 5.81 0 11.62.737 17.26 2.16h.013l.225.06.224.06c13.307 3.41 25.36 11.033 34.426 21.33 9.05 10.354 15.15 23.384 16.337 37.6zm-345.39 80.38h.15c3.254 1.198 6.606 1.765 9.934 1.765 8.285 0 16.34-3.347 22.44-8.866 6.094-5.573 10.258-13.426 10.258-22.358l-.015-.737.033-1.315c0-8.867-4.11-16.785-10.145-22.292-6.053-5.64-14.09-9.05-22.41-9.05-2.22 0-4.492.288-6.7.796h-.124c-11.008 2.34-20.678 10.466-24.24 21.73l-.015.066c-1.02 3.057-1.494 6.244-1.494 9.38 0 6.93 2.272 13.597 6.198 19.17 3.887 5.4 9.4 9.67 16.008 11.66m179.218 41.42c-2.635-1.713-5.665-2.74-8.88-2.74-2.582 0-5.27.737-7.654 2.345-22.62 13.48-49.234 20.87-75.644 20.87-19.82 0-39.524-4.15-57.37-12.91l-.092-.054-.085-.053c-2.688-1.08-5.758-3.426-9.104-5.64-1.7-1.132-3.47-2.213-5.44-3.017-1.942-.855-4.103-1.423-6.41-1.423-1.91 0-3.92.462-5.9 1.305l-.303.118h.013c-3.107 1.2-5.538 3.413-7.106 5.97-1.634 2.687-2.438 5.743-2.438 8.826 0 2.794.66 5.574 2.016 8.077 1.29 2.384 3.274 4.49 5.876 5.86 25.514 17.233 55.545 25.03 85.702 24.967 27.187 0 54.538-6.258 78.885-17.747l.132-.054.132-.052c3.2-1.95 7.47-3.65 11.486-6.087 2.003-1.317 3.94-2.74 5.612-4.678 1.66-1.87 3.003-4.204 3.767-6.997.304-1.252.462-2.45.462-3.584 0-2.267-.567-4.428-1.49-6.378-1.373-2.844-3.585-5.215-6.168-6.928zm20.473-82.5c1.318 3.372 1.91 6.89 1.91 10.354 0 6.942-2.41 13.78-6.455 19.287-3.992 5.468-9.657 9.67-16.323 11.555l-.146.053h-.09c-3.11 1.08-6.326 1.594-9.488 1.594-7.457 0-14.756-2.677-20.605-7.274-5.797-4.56-10.197-11.093-11.567-18.84h-.012l-.014-.105-.026-.064h.026c-.435-1.99-.658-3.98-.658-5.97 0-6.718 2.292-13.2 6.073-18.496 3.766-5.342 9.075-9.55 15.294-11.712h.093c3.518-1.31 7.232-1.99 10.896-1.99 6.692 0 13.28 2.043 18.84 5.745 5.48 3.637 9.934 8.985 12.173 15.65l.053.106.04.103h-.016z"/>
</svg>
