<svg xmlns="http://www.w3.org/2000/svg" viewBox="0 0 20 20">
    <path d="M17.316 6.246c.008.162.01.326.01.488 0 4.99-3.796 10.742-10.74 10.742-2.132 0-4.115-.625-5.786-1.697.296.033.596.05.9.05 1.77 0 3.397-.603 4.688-1.614-1.65-.03-3.046-1.12-3.526-2.62.23.042.467.065.71.065.345 0 .68-.044.995-.13C2.84 11.18 1.54 9.658 1.54 7.828V7.78c.508.284 1.09.454 1.71.474-1.014-.678-1.68-1.832-1.68-3.143 0-.69.185-1.34.51-1.896C3.943 5.498 6.726 7 9.863 7.158c-.064-.277-.097-.564-.097-.86 0-2.085 1.69-3.774 3.774-3.774 1.085 0 2.066.457 2.755 1.19.86-.17 1.667-.483 2.397-.915-.282.88-.88 1.62-1.66 2.086.764-.092 1.49-.293 2.168-.594-.506.758-1.146 1.422-1.884 1.953z"/>
</svg>
