<svg viewBox="0 0 87 88" xmlns="http://www.w3.org/2000/svg"><path d="M61.623 51.83c-.94-.515-5.562-3.01-6.428-3.363-.867-.35-1.5-.535-2.173.4-.675.934-2.593 3.023-3.175 3.642-.583.616-1.144.673-2.084.16-.94-.515-3.99-1.645-7.525-5.044-2.752-2.645-4.557-5.854-5.08-6.834-.526-.978-.005-1.478.493-1.937.45-.413 1-1.084 1.5-1.625.5-.54.677-.933 1.02-1.562.342-.625.203-1.19-.018-1.678-.222-.488-1.962-5.275-2.687-7.222-.725-1.946-1.537-1.657-2.095-1.678-.558-.022-1.195-.125-1.834-.15-.637-.023-1.684.177-2.6 1.105-.912.922-3.474 3.147-3.65 7.862-.174 4.713 3.084 9.395 3.538 10.05.456.658 6.23 10.875 15.823 15.075 9.596 4.2 9.645 2.92 11.406 2.825 1.763-.09 5.756-2.104 6.638-4.31.884-2.205.955-4.125.73-4.532-.225-.408-.855-.673-1.794-1.188M44.028 74.54c-6.345 0-12.253-1.903-17.187-5.163L14.838 73.22l3.902-11.6C15 56.466 12.79 50.137 12.79 43.3c0-17.226 14.014-31.24 31.24-31.24 17.224 0 31.24 14.012 31.24 31.24 0 17.226-14.016 31.24-31.24 31.24M6.5 43.3c0 7.09 1.968 13.72 5.384 19.38L5.11 82.808l20.78-6.65c5.375 2.972 11.558 4.667 18.137 4.667 20.725 0 37.528-16.802 37.528-37.525 0-20.727-16.804-37.528-37.53-37.528-20.723 0-37.523 16.8-37.523 37.527z"/></svg>
